<svg id="Layer_1" data-name="Layer 1" xmlns="http://www.w3.org/2000/svg" viewBox="0 0 30 30"><defs><style>.cls-1{fill:#90f;}</style></defs><path class="cls-1" d="M11.01364,21.43072a8.899,8.899,0,0,1-2.35006-1.40048A9.35907,9.35907,0,0,1,6.798,17.96072a8.74983,8.74983,0,0,1-.6835-1.24124,8.06707,8.06707,0,0,1-.47294-1.35255c-.03187-.11607-.05533-.23433-.08207-.352-.02341-.1179-.0466-.23814-.06477-.35578-.01667-.11742-.03651-.2346-.04916-.35278l-.02109-.17711-.01674-.17772a9.71669,9.71669,0,0,1-.02889-1.43214,10.057,10.057,0,0,1,2.86-6.49237,10.63735,10.63735,0,0,1,1.08429-.96928,10.93235,10.93235,0,0,1,2.51132-1.45194,11.324,11.324,0,0,1,2.79914-.73867A11.5932,11.5932,0,0,1,16.07632,2.776a11.26491,11.26491,0,0,1,1.43777.08417,11.60159,11.60159,0,0,1,5.30448,2.03525,11.17351,11.17351,0,0,1,3.63,4.26794,10.242,10.242,0,0,1,.98623,5.374,12.11255,12.11255,0,0,0-.54328-2.62574,11.00357,11.00357,0,0,0-.48774-1.22936,10.64239,10.64239,0,0,0-.62439-1.15377,11.12384,11.12384,0,0,0-5.94232-4.691,11.92479,11.92479,0,0,0-1.226-.32917A11.0382,11.0382,0,0,0,14.839,4.38444a10.13691,10.13691,0,0,0-1.23026.251,10.01783,10.01783,0,0,0-1.18626.40369,9.60268,9.60268,0,0,0-2.1714,1.23227A9.42557,9.42557,0,0,0,8.46918,8.0182a9.24281,9.24281,0,0,0-1.2555,2.16191c-.08141.19314-.15086.391-.21875.58964-.0639.19984-.12461.40107-.1766.60491a8.78861,8.78861,0,0,0-.23116,1.24345c-.025.21018-.03972.42167-.05309.63371-.009.21217-.01534.42509-.01039.63832l.00316.16.00725.16c.00332.10687.01371.21335.02074.32022.00912.1062.01935.20915.03086.314.01464.104.02566.20882.045.31252.032.20858.07962.415.12955.62148.05477.20516.11312.41035.18266.61267.06663.20339.14653.40268.22891.60158.08653.197.17738.393.27717.58521.09729.19361.20617.38154.31747.56875.115.18474.23353.36827.36014.54681a9.78376,9.78376,0,0,0,.8302,1.025A10.52323,10.52323,0,0,0,11.01364,21.43072ZM13.589,6.67093a9.342,9.342,0,0,1,2.61718-.12668,9.13269,9.13269,0,0,1,2.50919.57616c.19735.07782.3899.164.578.25686.19176.09637.38194.195.56651.30281a9.71844,9.71844,0,0,1,1.06125.70882,8.8862,8.8862,0,0,1,.95032.83835l.11037.11308.10751.11571c.073.0758.14079.1564.211.23456.13633.16008.26992.3223.39443.49137a9.25031,9.25031,0,0,1,1.21175,2.192c.07332.1958.14331.39273.20456.59255.03295.09913.05983.20019.08946.30032.02672.101.05443.20173.07828.30345a9.18853,9.18853,0,0,1,.21,1.23481,9.59483,9.59483,0,0,1-.0619,2.50042,9.92193,9.92193,0,0,1-.68553,2.41257,10.94,10.94,0,0,1-2.05662,3.17033,11.84636,11.84636,0,0,1-.91838.87874,11.13965,11.13965,0,0,1-7.10976,2.64307,10.74157,10.74157,0,0,1-1.31306-.06438,11.11145,11.11145,0,0,1-1.30694-.21958,12.18946,12.18946,0,0,1-2.53343-.89369,10.31475,10.31475,0,0,0,5.11848,1.93948,11.22732,11.22732,0,0,0,5.5422-.885,11.53774,11.53774,0,0,0,4.50065-3.48634,11.20177,11.20177,0,0,0,.81617-1.1908,11.55879,11.55879,0,0,0,.667-1.28554,11.308,11.308,0,0,0,.81057-2.78464,11.04014,11.04014,0,0,0,.121-1.45083,10.36329,10.36329,0,0,0-.07268-1.45484,10.70374,10.70374,0,0,0-.27365-1.43109,10.05647,10.05647,0,0,0-4.10808-5.79868,9.84839,9.84839,0,0,0-1.24622-.711c-.21432-.10471-.43322-.19871-.65286-.28929-.225-.09024-.454-.16827-.684-.23731a9.312,9.312,0,0,0-2.81018-.37448,9.05571,9.05571,0,0,0-2.75352.46706,7.13916,7.13916,0,0,0-1.26515.56917,5.57524,5.57524,0,0,0-1.09739.82076A6.92135,6.92135,0,0,1,13.589,6.67093Zm9.00046,10.043a9.23309,9.23309,0,0,1-.41816,1.25058,9.02761,9.02761,0,0,1-.58335,1.16851,8.73442,8.73442,0,0,1-.73619,1.06385l-.10171.12476-.10533.12153c-.06837.0824-.14259.15968-.21385.23918-.1469.15515-.29673.30688-.45465.44923-.15542.14507-.32038.2784-.48533.41051-.16985.13095-.341.25951-.51807.379a9.72165,9.72165,0,0,1-1.098.64883,8.89284,8.89284,0,0,1-1.16655.49293l-.14965.0504-.15075.04675c-.09989.03288-.2018.05919-.30264.08851-.20317.05363-.40716.10358-.61331.14262-.20553.04185-.41309.07241-.62066.09961-.10419.011-.2079.02489-.31236.03239l-.15627.01408-.15658.01007a9.01435,9.01435,0,0,1-1.25306-.01339c-.20812-.01849-.41579-.04083-.62229-.07209-.20679-.02876-.41224-.0668-.61647-.11a9.20941,9.20941,0,0,1-1.2032-.34505A9.58856,9.58856,0,0,1,8.3252,21.86944a9.90992,9.90992,0,0,1-1.87714-1.66076,10.8049,10.8049,0,0,1-1.96333-3.22259,11.68008,11.68008,0,0,1-.38915-1.20749,10.98448,10.98448,0,0,1-.34019-2.52339,11.163,11.163,0,0,1,1.1018-5.013A10.8489,10.8489,0,0,1,5.493,7.09193a11.28913,11.28913,0,0,1,.7704-1.0779,12.45268,12.45268,0,0,1,1.907-1.89065A10.4737,10.4737,0,0,0,4.1885,7.87458a11.20852,11.20852,0,0,0-1.65309,5.36011,11.3573,11.3573,0,0,0,1.16743,5.57183c.05207.10857.1092.21452.16374.32191.05831.10527.11564.21122.17615.31527.06153.10343.12077.20837.18556.3098l.09557.15322.09906.15113a11.51968,11.51968,0,0,0,.87,1.15663A11.29862,11.29862,0,0,0,7.4515,23.14861a11.01361,11.01361,0,0,0,1.25475.73639,10.32939,10.32939,0,0,0,1.3421.56374,10.47325,10.47325,0,0,0,2.85289.5467,9.97782,9.97782,0,0,0,5.556-1.36488,9.85349,9.85349,0,0,0,1.18005-.81446c.18712-.14767.36659-.30409.54331-.46266.17579-.16415.34774-.33217.50872-.50954a8.94454,8.94454,0,0,0,1.56662-2.36457,8.81429,8.81429,0,0,0,.63789-5.42452A9.84373,9.84373,0,0,1,22.58943,16.71388Z"/></svg>