<svg id="Layer_1" data-name="Layer 1" xmlns="http://www.w3.org/2000/svg" viewBox="0 0 15 15"><defs><style>.cls-1{fill:#90f;}</style></defs><path class="cls-1" d="M10.76354,14.69141H4.23644a3.93254,3.93254,0,0,1-3.928-3.92774V4.23633A3.93254,3.93254,0,0,1,4.23644.30859h6.5271a3.93238,3.93238,0,0,1,3.928,3.92774v6.52734A3.93238,3.93238,0,0,1,10.76354,14.69141ZM4.23644,1.05859a3.18125,3.18125,0,0,0-3.178,3.17774v6.52734a3.18125,3.18125,0,0,0,3.178,3.17774h6.5271a3.18125,3.18125,0,0,0,3.178-3.17774V4.23633a3.18125,3.18125,0,0,0-3.178-3.17774Z"/><rect class="cls-1" x="3.43617" y="3.43617" width="8.12766" height="8.12766" rx="2.11818"/></svg>