<svg id="Layer_1" data-name="Layer 1" xmlns="http://www.w3.org/2000/svg" xmlns:xlink="http://www.w3.org/1999/xlink" viewBox="0 0 15 15"><defs><style>.cls-1{fill:#ffc41f;}.cls-2{fill:url(#Gold);}</style><linearGradient id="Gold" x1="2.86853" y1="13.27405" x2="12.13123" y2="4.01135" gradientUnits="userSpaceOnUse"><stop offset="0.00562" stop-color="#fbc926"/><stop offset="0.25281" stop-color="#fffbcc"/><stop offset="0.30448" stop-color="#f8f0bb"/><stop offset="0.4072" stop-color="#e7d28e"/><stop offset="0.55" stop-color="#cca246"/><stop offset="0.59551" stop-color="#c3922e"/><stop offset="0.87079" stop-color="#eed688"/><stop offset="1" stop-color="#fffbcc"/></linearGradient></defs><polygon class="cls-1" points="1.737 6.293 6.139 6.293 7.5 2.106 8.86 6.293 13.263 6.293 9.701 8.881 11.062 13.068 8.197 10.987 7.5 10.481 3.938 13.068 5.299 8.881 1.737 6.293"/><path class="cls-2" d="M7.5,2.1062,8.86035,6.29346h4.40283L9.70117,8.8811l1.36035,4.18726-2.86425-2.0813L7.5,10.48047,3.938,13.06836,5.29883,8.8811l-3.562-2.58764H6.13965L7.5,2.1062m0-.91308L7.23193,2.019,5.93457,6.01147H.86865l.70215.51026,3.39649,2.467L3.66992,12.9812l-.26855.82568.70263-.51025L7.5,10.8291l.53125.38623,2.86426,2.0813.70263.51025-.26855-.82568L10.03271,8.98877l3.39649-2.467.70215-.51026H9.06543L7.76807,2.019,7.5,1.19312Z"/></svg>