<svg id="Layer_1" data-name="Layer 1" xmlns="http://www.w3.org/2000/svg" viewBox="0 0 15 15"><defs><style>.cls-1{fill:#333;}</style></defs><path class="cls-1" d="M10.95013,13.04993a.2507.2507,0,0,1-.147-.04785L7.49994,10.60266l-3.3031,2.39942a.25.25,0,0,1-.38477-.2793L5.07379,8.84,1.77057,6.43958a.25.25,0,0,1,.147-.45215h4.083l1.2616-3.88282a.26021.26021,0,0,1,.47558,0L8.99945,5.98743h4.083a.25.25,0,0,1,.147.45215L9.92621,8.84l1.26172,3.88281a.25011.25011,0,0,1-.2378.32715ZM7.49994,10.04358a.25063.25063,0,0,1,.147.04785l2.82776,2.0542L9.39447,8.82141a.24958.24958,0,0,1,.09082-.2793l2.82776-2.05468H8.81781A.25011.25011,0,0,1,8.58,6.31458L7.49994,2.99084,6.42,6.31458a.25011.25011,0,0,1-.23779.17285H2.687L5.51471,8.54211a.24958.24958,0,0,1,.09082.2793L4.52545,12.14563,7.353,10.09143A.25063.25063,0,0,1,7.49994,10.04358Z"/></svg>