<svg id="Layer_1" data-name="Layer 1" xmlns="http://www.w3.org/2000/svg" viewBox="0 0 15 15"><defs><style>.cls-1{fill:#333;}</style></defs><path class="cls-1" d="M7.74981,2.96631V1.95215H8.64a.25.25,0,0,0,0-.5H6.36016a.25.25,0,0,0,0,.5h.88965V2.96631a5.30375,5.30375,0,1,0,.5,0Zm-.25,10.08154a4.80347,4.80347,0,1,1,4.80371-4.80371A4.80885,4.80885,0,0,1,7.49981,13.04785Z"/><path class="cls-1" d="M10.73468,3.03418l-.146.2207a.24971.24971,0,0,0,.07129.34619.24428.24428,0,0,0,.13721.04151.25063.25063,0,0,0,.209-.11231l.14551-.2207.26709.17627A.24951.24951,0,0,0,11.765,3.415a.2496.2496,0,0,0-.0708-.34619L10.743,2.44092a.24986.24986,0,1,0-.27539.417Z"/><path class="cls-1" d="M8.85577,4.45312,7.27032,8.14551a.24927.24927,0,0,0,.13086.32812.24317.24317,0,0,0,.09863.02051.25029.25029,0,0,0,.23-.15137L9.31524,4.65039a.25.25,0,0,0-.45947-.19727Z"/></svg>