<svg id="Layer_1" data-name="Layer 1" xmlns="http://www.w3.org/2000/svg" viewBox="0 0 25 25"><defs><style>.cls-1{fill:#333;}</style></defs><path class="cls-1" d="M17.19,9.96732h-.47314V6.58256a4.2168,4.2168,0,1,0-8.43359,0V9.96732H7.81013a2.44084,2.44084,0,0,0-2.438,2.438v7.79053a2.441,2.441,0,0,0,2.438,2.43847H17.19a2.441,2.441,0,0,0,2.438-2.43847V12.40531A2.44084,2.44084,0,0,0,17.19,9.96732ZM8.78328,6.58256a3.7168,3.7168,0,1,1,7.43359,0V9.96732H8.78328ZM19.128,20.19584a1.94029,1.94029,0,0,1-1.938,1.93847H7.81013a1.94029,1.94029,0,0,1-1.938-1.93847V12.40531a1.93988,1.93988,0,0,1,1.938-1.938H17.19a1.93988,1.93988,0,0,1,1.938,1.938Z"/><path class="cls-1" d="M12.50007,14.76053a.54993.54993,0,0,0-.5498.55005.54234.54234,0,0,0,.18994.40845v1.54443a.35987.35987,0,0,0,.71973,0V15.719a.54238.54238,0,0,0,.18994-.40845A.54994.54994,0,0,0,12.50007,14.76053Z"/></svg>