<svg id="Layer_1" data-name="Layer 1" xmlns="http://www.w3.org/2000/svg" viewBox="0 0 15 15"><defs><style>.cls-1{fill:#333;}</style></defs><path class="cls-1" d="M5.46849,10.4703a.24772.24772,0,0,1-.13452-.03955,5.07448,5.07448,0,0,1-.99048-.82422,4.80268,4.80268,0,0,1-.40112-.49561c-.05994-.08447-.117-.17285-.17224-.26171-.05677-.09522-.10962-.18653-.15686-.28077-.04639-.08935-.09034-.18408-.13221-.27929-.04223-.10157-.08117-.19922-.11352-.29834C3.33507,7.89706,3.30663,7.797,3.28,7.69735c-.026-.10742-.04919-.2085-.06481-.31152-.00574-.0293-.01075-.06739-.01575-.10547L3.16319,6.773c-.00219-.10205.00074-.20459.005-.30713.00659-.10693.01391-.20849.02575-.30908a4.27567,4.27567,0,0,1,.11231-.60351c.02466-.09668.05383-.19385.08472-.28955.0343-.10108.06823-.19727.10778-.291a4.47773,4.47773,0,0,1,.60816-1.04639,4.55754,4.55754,0,0,1,.864-.84668,4.64521,4.64521,0,0,1,1.04895-.59521A4.75983,4.75983,0,0,1,7.18443,2.169a5.22646,5.22646,0,0,1,1.21143-.02979,5.1403,5.1403,0,0,1,.6029.08936,5.57314,5.57314,0,0,1,.58814.1582,5.42306,5.42306,0,0,1,1.10889.51563,5.35756,5.35756,0,0,1,1.74548,1.7373,5.117,5.117,0,0,1,.30017.55518,5.26486,5.26486,0,0,1,.23389.58887,5.82142,5.82142,0,0,1,.26013,1.25634.25034.25034,0,0,1-.22437.27344A.25409.25409,0,0,1,12.7379,7.089,5.321,5.321,0,0,0,12.5006,5.941a4.78643,4.78643,0,0,0-.21216-.53467,4.621,4.621,0,0,0-.27185-.50244A4.83708,4.83708,0,0,0,9.42906,2.86141a5.0432,5.0432,0,0,0-.53442-.14355,4.52183,4.52183,0,0,0-.54334-.08057,4.68166,4.68166,0,0,0-1.0946.02637,4.55949,4.55949,0,0,0-.53418.10889,4.34,4.34,0,0,0-.51306.1748,4.12993,4.12993,0,0,0-.93909.53272,4.03709,4.03709,0,0,0-.7699.75488,3.97062,3.97062,0,0,0-.54028.93017c-.03564.085-.06543.17041-.0946.25537-.02625.08252-.05274.16993-.07532.25831a3.7757,3.7757,0,0,0-.09961.53564c-.011.09277-.01734.18457-.02319.27734-.00354.08643-.00635.17823-.0044.27051l.04492.53955c.015.09717.03528.18457.05652.272.0221.08251.04712.17089.077.25781.02978.09131.06408.17627.09924.26123.03552.08056.07459.16553.1178.248.04358.08741.09058.168.1383.24805.04749.07569.09888.15625.15394.2334a4.22807,4.22807,0,0,0,.35974.44434,4.56018,4.56018,0,0,0,.89294.74316.24993.24993,0,0,1-.135.46045Z"/><path class="cls-1" d="M6.88158,12.88241a5.15274,5.15274,0,0,1-.56775-.03125,5.41648,5.41648,0,0,1-.62647-.10547,5.84447,5.84447,0,0,1-1.212-.42725.24991.24991,0,1,1,.21508-.45117,5.35871,5.35871,0,0,0,1.10779.39112,5.04052,5.04052,0,0,0,.56946.0957,4.38837,4.38837,0,0,0,.57141.02783A4.8498,4.8498,0,0,0,10.03551,11.231a5.17943,5.17943,0,0,0,.40039-.3833,4.742,4.742,0,0,0,.89233-1.376,4.29479,4.29479,0,0,0,.29749-1.04541,4.14356,4.14356,0,0,0,.027-1.081,3.98879,3.98879,0,0,0-.0907-.53369l-.02784-.1084-.01782-.063-.02527-.08447c-.02819-.0918-.05871-.17725-.09045-.26172a3.97264,3.97264,0,0,0-.52112-.94238c-.0542-.07325-.11181-.14307-.17041-.21192L10.52416,4.94a3.80932,3.80932,0,0,0-.40845-.36036A4.13915,4.13915,0,0,0,9.65782,4.274c-.08227-.04834-.16443-.09033-.24707-.13184-.07861-.03906-.16064-.07568-.24451-.10888a3.91445,3.91445,0,0,0-1.079-.24707,4.03239,4.03239,0,0,0-1.12842.0542A2.89578,2.89578,0,0,0,5.91624,4.252a.25013.25013,0,0,1-.2749-.418,3.41218,3.41218,0,0,1,1.22132-.48438,4.53715,4.53715,0,0,1,1.269-.06152A4.40648,4.40648,0,0,1,9.34911,3.568c.09753.03857.192.08105.28418.12646.09423.04688.1864.09473.27575.14746a4.58393,4.58393,0,0,1,.511.34131,4.33683,4.33683,0,0,1,.46191.40723l.178.1914c.096.11133.16065.18994.22107.272a4.46686,4.46686,0,0,1,.58692,1.0625c.03613.09619.06982.1914.09948.28759l.02967.09864.02014.07177.03125.12159a4.46965,4.46965,0,0,1,.10156.59863A4.626,4.626,0,0,1,12.11986,8.502a4.77517,4.77517,0,0,1-.33093,1.16406,5.11782,5.11782,0,0,1-.59974,1.0542,5.25624,5.25624,0,0,1-.389.47021,5.8115,5.8115,0,0,1-.44068.42139,5.34383,5.34383,0,0,1-3.415,1.27Z"/><path class="cls-1" d="M6.583,11.84188c-.11511,0-.234-.00488-.35888-.01465-.103-.00879-.203-.01953-.30274-.03466-.09765-.01319-.19739-.03174-.29638-.05274a4.49794,4.49794,0,0,1-.58521-.168,4.614,4.614,0,0,1-1.07532-.54931,4.77756,4.77756,0,0,1-.90551-.80176,5.08725,5.08725,0,0,1-.68958-.99561,4.975,4.975,0,0,1-.25452-.55469A5.57491,5.57491,0,0,1,1.928,8.0909,5.29983,5.29983,0,0,1,1.76415,6.877a5.37062,5.37062,0,0,1,.52917-2.40772,5.28941,5.28941,0,0,1,.30505-.55224A5.48574,5.48574,0,0,1,2.96764,3.401a5.94185,5.94185,0,0,1,.91125-.90381.25.25,0,1,1,.31323.38965,5.44138,5.44138,0,0,0-.835.82764,4.937,4.937,0,0,0-.33581.46924,4.74235,4.74235,0,0,0-.27686.50146,4.86823,4.86823,0,0,0-.48034,2.18311,4.78969,4.78969,0,0,0,.14807,1.09814,5.0521,5.0521,0,0,0,.16955.52539,4.55694,4.55694,0,0,0,.22864.498,4.60709,4.60709,0,0,0,.62292.8999,4.29259,4.29259,0,0,0,.8136.72022,4.13108,4.13108,0,0,0,.962.4917,4.01961,4.01961,0,0,0,.52014.14941c.08618.01758.17468.03418.2638.04688.09191.01367.18188.02343.27209.03125a3.77234,3.77234,0,0,0,.53589.00586l.22681-.01954c.13195-.0166.22143-.02929.31-.04736.09143-.01758.17932-.03906.26685-.062l.1969-.05908c.12414-.042.24487-.08448.36169-.13672a4.28684,4.28684,0,0,0,.67627-.37647c.07825-.05273.15235-.10839.22583-.165.067-.05371.13782-.11084.20447-.17285.07031-.064.13452-.1289.19739-.19531l.1803-.208a3.78526,3.78526,0,0,0,.316-.457,3.8522,3.8522,0,0,0,.251-.50342,3.98988,3.98988,0,0,0,.1803-.53906,4.255,4.255,0,0,0,.13123-1.1499.24988.24988,0,0,1,.24548-.2544.24265.24265,0,0,1,.25452.24561,4.76135,4.76135,0,0,1-.14734,1.28467,4.46385,4.46385,0,0,1-.20313.60644,4.34946,4.34946,0,0,1-.283.5669,4.25889,4.25889,0,0,1-.35754.51611l-.16882.19629c-.10816.11572-.18116.18945-.25806.25928-.073.06787-.15332.13281-.23352.19726-.08569.06641-.16834.12793-.25391.18555a4.79816,4.79816,0,0,1-.7539.42041c-.13123.05811-.26636.10645-.40223.15234l-.17883.05469c-.15271.041-.25159.06543-.35144.08447-.097.01953-.19751.03418-.29809.04737l-.30237.02783C6.75157,11.83944,6.66832,11.84188,6.583,11.84188Z"/></svg>