<svg id="Layer_1" data-name="Layer 1" xmlns="http://www.w3.org/2000/svg" viewBox="0 0 15 15"><defs><style>.cls-1{fill:#333;}</style></defs><path class="cls-1" d="M10.7637,14.69141H4.23635a3.93238,3.93238,0,0,1-3.928-3.92774V4.23633A3.93238,3.93238,0,0,1,4.23635.30859H10.7637a3.93238,3.93238,0,0,1,3.928,3.92774v6.52734A3.93238,3.93238,0,0,1,10.7637,14.69141ZM4.23635,1.05859a3.18124,3.18124,0,0,0-3.178,3.17774v6.52734a3.18124,3.18124,0,0,0,3.178,3.17774H10.7637a3.18125,3.18125,0,0,0,3.178-3.17774V4.23633a3.18125,3.18125,0,0,0-3.178-3.17774Z"/></svg>