<?xml version="1.0" encoding="utf-8"?>
<!-- Generator: Adobe Illustrator 24.1.3, SVG Export Plug-In . SVG Version: 6.00 Build 0)  -->
<svg version="1.1" id="Layer_1" xmlns="http://www.w3.org/2000/svg" xmlns:xlink="http://www.w3.org/1999/xlink" x="0px" y="0px"
	 viewBox="0 0 92.4255295 126.8936157" enable-background="new 0 0 92.4255295 126.8936157" xml:space="preserve">
<path fill="#FFFFFF" d="M65.1029053,75.5439758h-1.6181679V63.3105774c0-8.5361328-6.9448242-15.4804688-15.480957-15.4804688
	s-15.480957,6.9443359-15.480957,15.4804688v5.2509766c0,0.5625,0.4560547,1.0175781,1.0180664,1.0175781
	s1.0180664-0.4550781,1.0180664-1.0175781v-5.2509766c0-7.4130859,6.03125-13.4453125,13.4448242-13.4453125
	s13.4448242,6.0322266,13.4448242,13.4453125v12.2333984H30.9051495c-4.9609375,0-8.9970703,4.0361328-8.9970703,8.9970703
	v28.4033203c0,4.9609375,4.0361328,8.9960938,8.9970703,8.9960938h34.1977539c4.9604492,0,8.996582-4.0351563,8.996582-8.9960938
	V84.5410461C74.0994873,79.5801086,70.0633545,75.5439758,65.1029053,75.5439758z M72.0633545,112.9443665
	c0,3.8378906-3.1225586,6.9609375-6.9604492,6.9609375H30.9051495c-3.8383789,0-6.9609375-3.1230469-6.9609375-6.9609375V84.5410461
	c0-3.8388672,3.1225586-6.9619141,6.9609375-6.9619141h34.1977539c3.8378906,0,6.9604492,3.1230469,6.9604492,6.9619141V112.9443665
	z M50.0089073,95.132843c0,0.6035156-0.2722168,1.1381836-0.6938477,1.5058594v5.6147461
	c0,0.7241211-0.5871582,1.3112793-1.3112793,1.3112793s-1.3112793-0.5871582-1.3112793-1.3112793v-5.6147461
	c-0.4216309-0.3676758-0.6938477-0.9023438-0.6938477-1.5058594c0-1.1074219,0.8977051-2.005127,2.005127-2.005127
	S50.0089073,94.0254211,50.0089073,95.132843z M21.1258526,40.5498352c-6.7128916,0-7.2348642-9.3652344-7.2348642-12.2353516
	c0-0.5527344-0.4477539-1-1-1s-1,0.4472656-1,1c0,2.8701172-0.5219727,12.2353516-7.2353511,12.2353516
	c-0.5522461,0-1.0000002,0.4472656-1.0000002,1s0.4477541,1,1.0000002,1c6.7133784,0,7.2353511,9.3652344,7.2353511,12.2353516
	c0,0.5527344,0.4477539,1,1,1s1-0.4472656,1-1c0-2.8701172,0.5219727-12.2353516,7.2348642-12.2353516c0.5522461,0,1-0.4472656,1-1
	S21.6780987,40.5498352,21.1258526,40.5498352z M12.8909883,47.6426086
	c-0.8330078-2.6425781-2.2260742-4.8730469-4.3300781-6.0927734c2.1040039-1.2197266,3.4970703-3.4501953,4.3300781-6.0927734
	c0.8325195,2.6425781,2.2260742,4.8730469,4.3295908,6.0927734C15.1170626,42.7695618,13.7235079,45.0000305,12.8909883,47.6426086z
	 M87.7698975,46.3076477c-4.9624023,0-5.3481445-7.0439453-5.3481445-9.203125c0-0.5527344-0.4477539-1-1-1s-1,0.4472656-1,1
	c0,2.1591797-0.3857422,9.203125-5.3486328,9.203125c-0.5522461,0-1,0.4472656-1,1s0.4477539,1,1,1
	c4.9628906,0,5.3486328,7.0429688,5.3486328,9.2021484c0,0.5527344,0.4477539,1,1,1s1-0.4472656,1-1
	c0-2.1591797,0.3857422-9.2021484,5.3481445-9.2021484c0.5522461,0,1-0.4472656,1-1S88.3221436,46.3076477,87.7698975,46.3076477z
	 M81.4217529,51.2969055c-0.625-1.6777344-1.5678711-3.0986328-2.8979492-3.9892578
	c1.3300781-0.8916016,2.2729492-2.3115234,2.8979492-3.9902344c0.625,1.6787109,1.5678711,3.0986328,2.8974609,3.9902344
	C82.989624,48.1982727,82.0467529,49.6191711,81.4217529,51.2969055z M52.4564171,19.4658508
	c6.2963867,0,6.7856445,8.8115234,6.7856445,11.5126953c0,0.5527344,0.4477539,1,1,1s1-0.4472656,1-1
	c0-2.7011719,0.4892578-11.5126953,6.7856483-11.5126953c0.5522461,0,1-0.4472656,1-1s-0.4477539-1-1-1
	c-6.2963905,0-6.7856483-8.8115225-6.7856483-11.5126953c0-0.5527344-0.4477539-1-1-1s-1,0.4472656-1,1
	c0,2.7011724-0.4892578,11.5126953-6.7856445,11.5126953c-0.5522461,0-1,0.4472656-1,1S51.904171,19.4658508,52.4564171,19.4658508z
	 M60.2420616,12.8847971c0.7856445,2.40625,2.0708008,4.4365225,3.9838905,5.5810537
	c-1.9130898,1.1445313-3.198246,3.1748047-3.9838905,5.5810547c-0.7856445-2.40625-2.0708008-4.4365234-3.9838867-5.5810547
	C58.1712608,17.3213196,59.4564171,15.2910471,60.2420616,12.8847971z"/>
</svg>
