<svg id="Layer_1" data-name="Layer 1" xmlns="http://www.w3.org/2000/svg" viewBox="0 0 35 35"><defs><style>.cls-1{fill:#90f;}</style></defs><path class="cls-1" d="M27.12659,30.83252H7.87341a5.4983,5.4983,0,0,1-5.49194-5.49219V6.0874A5.4983,5.4983,0,0,1,7.87341.59521H27.12659A5.4983,5.4983,0,0,1,32.61853,6.0874V25.34033A5.4983,5.4983,0,0,1,27.12659,30.83252ZM7.87341,2.59521A3.49586,3.49586,0,0,0,4.38147,6.0874V25.34033a3.49586,3.49586,0,0,0,3.49194,3.49219H27.12659a3.49586,3.49586,0,0,0,3.49194-3.49219V6.0874a3.49586,3.49586,0,0,0-3.49194-3.49219Z"/><path class="cls-1" d="M28.20067,14.71388h-.706A9.999,9.999,0,0,0,25.2705,9.35719l.50293-.50317A.99989.99989,0,0,0,24.35936,7.44l-.50293.50317A9.99889,9.99889,0,0,0,18.5,5.719V5.0132a1,1,0,0,0-2,0V5.719a9.999,9.999,0,0,0-5.35645,2.22412L10.64061,7.44A.99989.99989,0,1,0,9.22655,8.854l.50293.50317a10.03825,10.03825,0,0,0-1.69726,3.032H7.01806a1,1,0,0,0-1,1V17.875a1.00005,1.00005,0,0,0,1,1h.9541a10.03567,10.03567,0,0,0,1.75732,3.19531l-.50293.50293a.99989.99989,0,1,0,1.41406,1.41406l.50293-.50269A9.999,9.999,0,0,0,16.5,25.70876v.70581a1,1,0,0,0,2,0v-.70581a9.99732,9.99732,0,0,0,5.35644-2.22413l.50293.50269a.99989.99989,0,0,0,1.41407-1.41406l-.50293-.50293a9.99826,9.99826,0,0,0,2.22412-5.35645h.706a1,1,0,0,0,0-2ZM17.5,24.10036a8.3866,8.3866,0,1,1,8.38672-8.38648A8.38654,8.38654,0,0,1,17.5,24.10036Z"/><circle class="cls-1" cx="17.50003" cy="15.7138" r="1.80934"/><path class="cls-1" d="M31.61853,34.40479H3.38147a1,1,0,0,1,0-2H31.61853a1,1,0,0,1,0,2Z"/></svg>